<?xml version="1.0" encoding="UTF-8" standalone="no"?>
<svg
   version="1.1"
   width="831.65356"
   height="144.20848"
   viewBox="0 0 831.65356 144.20848"
   id="svg57"
   sodipodi:docname="starting-line-low-resolution-color-logo.svg"
   inkscape:export-filename="starting-line-low-resolution-color-logo.svg"
   inkscape:export-xdpi="96"
   inkscape:export-ydpi="96"
   xmlns:inkscape="http://www.inkscape.org/namespaces/inkscape"
   xmlns:sodipodi="http://sodipodi.sourceforge.net/DTD/sodipodi-0.dtd"
   xmlns="http://www.w3.org/2000/svg"
   xmlns:svg="http://www.w3.org/2000/svg">
  <defs
     id="defs61" />
  <sodipodi:namedview
     id="namedview59"
     pagecolor="#ffffff"
     bordercolor="#000000"
     borderopacity="0.25"
     inkscape:showpageshadow="2"
     inkscape:pageopacity="0.0"
     inkscape:pagecheckerboard="0"
     inkscape:deskcolor="#d1d1d1"
     showgrid="false" />
  <rect
     width="1000"
     height="750"
     fill="#ffffff"
     id="rect2"
     x="-78.698143"
     y="-303.45361" />
  <g
     transform="matrix(0.834,0,0,0.834,3.796402,3.5513467)"
     id="g55">
    <svg
       viewBox="0 0 396 65"
       data-background-color="#ffffff"
       preserveAspectRatio="xMidYMid"
       height="164"
       width="1000"
       version="1.1"
       id="svg53">
      <g
         id="tight-bounds"
         transform="translate(0.24,-0.18674519)">
        <svg
           viewBox="0 0 395.52 65.37349"
           height="65.373489"
           width="395.51999"
           version="1.1"
           id="svg48">
          <g
             id="g44">
            <svg
               viewBox="0 0 485.13623 80.185702"
               height="65.373489"
               width="395.51999"
               version="1.1"
               id="svg42">
              <g
                 transform="translate(0,11.082105)"
                 id="g28">
                <svg
                   viewBox="0 0 395.52 58.021492"
                   height="58.021492"
                   width="395.51999"
                   version="1.1"
                   id="svg26">
                  <g
                     id="g24">
                    <svg
                       viewBox="0 0 395.52 58.021492"
                       height="58.021492"
                       width="395.51999"
                       version="1.1"
                       id="svg22">
                      <g
                         id="g11">
                        <svg
                           viewBox="0 0 395.52 39.947019"
                           height="39.947018"
                           width="395.51999"
                           version="1.1"
                           id="svg9">
                          <g
                             id="g7">
                            <svg
                               width="395.51999"
                               viewBox="1.8 -35.200001 355.42001 35.900002"
                               height="39.947018"
                               data-palette-color="#000000"
                               version="1.1"
                               id="svg5">
                              <path
                                 d="m 15.3,-35.2 v 0 q 2.65,0.05 5.85,0.35 3.2,0.3 6.2,1.25 v 0 l -0.6,6.1 q -2.2,-0.05 -5.37,-0.1 -3.18,-0.05 -6.23,-0.05 v 0 q -1.15,0 -1.92,0.07 -0.78,0.08 -1.25,0.3 -0.48,0.23 -0.68,0.65 -0.2,0.43 -0.2,1.18 v 0 q 0,1.2 0.73,1.82 0.72,0.63 2.57,1.28 v 0 l 6.45,2.4 q 4.2,1.65 5.88,4.07 1.67,2.43 1.67,6.28 v 0 q 0,2.9 -0.7,4.9 -0.7,2 -2.27,3.15 -1.58,1.15 -4.15,1.7 Q 18.7,0.7 14.9,0.7 v 0 Q 13.15,0.7 9.78,0.45 6.4,0.2 2.15,-0.85 v 0 l 0.55,-6.6 q 3,0.05 5.33,0.12 2.32,0.08 4.05,0.1 1.72,0.03 2.72,0.03 v 0 q 1.7,0 2.6,-0.18 0.9,-0.17 1.25,-0.65 Q 19,-8.5 19,-9.4 v 0 q 0,-0.85 -0.25,-1.35 -0.25,-0.5 -0.87,-0.85 -0.63,-0.35 -1.68,-0.7 v 0 l -6.9,-2.75 q -4.1,-1.7 -5.8,-4.05 -1.7,-2.35 -1.7,-6.15 v 0 q 0,-3 0.75,-4.9 0.75,-1.9 2.33,-3 1.57,-1.1 4.17,-1.58 2.6,-0.47 6.25,-0.47 z m 25.3,0.7 H 50 V 0 h -9.4 z m -10,0 h 29.35 v 7.15 H 30.6 Z m 39.5,0 h 8.65 q 1.15,0 2.02,0.65 0.88,0.65 1.18,1.8 v 0 L 91.4,0 h -9.6 l -6.05,-23.8 q -0.2,-0.85 -0.35,-1.83 -0.15,-0.97 -0.3,-1.82 v 0 h -1.35 q -0.1,0.85 -0.28,1.82 -0.17,0.98 -0.37,1.83 v 0 L 67.05,0 h -9.6 l 9.45,-32.05 q 0.3,-1.15 1.17,-1.8 0.88,-0.65 2.03,-0.65 z m -4.75,19.55 H 83.5 V -8.2 H 65.35 Z M 108.14,-35 v 0 q 4.85,0 7.9,0.95 3.05,0.95 4.48,3.17 1.42,2.23 1.42,6.28 v 0 q 0,2.2 -0.62,4 -0.63,1.8 -2.13,2.92 -1.5,1.13 -4.1,1.43 v 0 0.3 q 0.95,0.1 2.03,0.6 1.07,0.5 2,1.62 0.92,1.13 1.32,3.08 v 0 L 123.29,0 h -9.85 l -2.45,-10.35 q -0.35,-1.6 -1.1,-2.13 -0.75,-0.52 -2.2,-0.52 v 0 q -3.6,-0.05 -5.95,-0.05 -2.35,0 -3.97,-0.05 -1.63,-0.05 -3.08,-0.15 v 0 l 0.15,-6.55 h 13.1 q 1.8,0 2.78,-0.35 0.97,-0.35 1.37,-1.28 0.4,-0.92 0.4,-2.57 v 0 q 0,-1.7 -0.4,-2.6 -0.4,-0.9 -1.37,-1.25 -0.98,-0.35 -2.78,-0.35 v 0 q -4.95,0 -8.37,0.05 -3.43,0.05 -4.68,0.15 v 0 l -0.75,-6.5 q 2.2,-0.25 4.15,-0.35 1.95,-0.1 4.28,-0.13 2.32,-0.02 5.57,-0.02 z m -14,0.5 h 9.2 V 0 h -9.2 z m 40.5,0 h 9.4 V 0 h -9.4 z m -10,0 h 29.35 v 7.15 h -29.35 z m 33.05,0 h 9.3 V 0 h -9.3 z m 37.25,0 h 8.65 v 31.2 q 0,3.3 -3.25,3.3 v 0 h -4.2 q -1.5,0 -2.23,-0.7 -0.72,-0.7 -1.47,-2.05 v 0 l -8.45,-14.7 q -0.6,-1.25 -1.2,-2.7 -0.6,-1.45 -1,-2.9 v 0 h -0.45 q 0.2,1.45 0.32,2.97 0.13,1.53 0.13,2.93 v 0 V 0 h -8.75 v -31.2 q 0,-3.3 3.3,-3.3 v 0 h 4.15 q 1.5,0 2.2,0.7 0.7,0.7 1.5,2.05 v 0 l 8.1,14.15 q 0.7,1.2 1.35,2.65 0.65,1.45 1.25,3.05 v 0 h 0.45 q -0.15,-1.55 -0.25,-3.05 -0.1,-1.5 -0.1,-3 v 0 z m 29.39,-0.7 v 0 q 2.55,0 4.53,0.15 1.97,0.15 3.7,0.42 1.72,0.28 3.42,0.78 v 0 l -0.7,6.8 q -1.8,-0.05 -3.5,-0.08 -1.7,-0.02 -3.45,-0.05 -1.75,-0.02 -3.9,-0.02 v 0 q -1.75,0 -2.92,0.4 -1.18,0.4 -1.85,1.5 -0.68,1.1 -0.98,3.07 -0.3,1.98 -0.3,5.03 v 0 q 0,3.85 0.48,6 0.47,2.15 1.57,3 1.1,0.85 3.05,0.85 v 0 q 1.3,0 2.38,-0.18 1.07,-0.17 1.95,-0.5 0.87,-0.32 1.52,-0.57 v 0 l 0.95,4.1 q -0.65,1 -2.07,2.23 -1.43,1.22 -3.53,2.09 -2.1,0.88 -4.85,0.88 v 0 q -3.9,0 -6.42,-1.83 -2.53,-1.82 -3.7,-5.77 -1.18,-3.95 -1.18,-10.35 v 0 q 0,-6.7 1.53,-10.63 1.52,-3.92 5,-5.62 3.47,-1.7 9.27,-1.7 z m 4,15.35 h 9 V 0 h -6.9 l -1.25,-5.3 -0.85,-1.65 z m 24.75,-14.65 h 9.35 v 24.85 q 0,1 0.65,1.57 0.65,0.58 1.75,0.58 v 0 h 11.8 l 0.45,7.05 q -3.75,0.45 -7.9,0.53 -4.15,0.07 -8.2,0.07 v 0 q -3.75,0 -5.83,-2.1 -2.07,-2.1 -2.07,-5.45 v 0 z m 27.5,0 h 9.3 V 0 h -9.3 z m 37.24,0 h 8.65 v 31.2 q 0,3.3 -3.25,3.3 v 0 h -4.2 q -1.5,0 -2.22,-0.7 -0.73,-0.7 -1.48,-2.05 v 0 l -8.45,-14.7 q -0.6,-1.25 -1.2,-2.7 -0.6,-1.45 -1,-2.9 v 0 h -0.45 q 0.2,1.45 0.33,2.97 0.12,1.53 0.12,2.93 v 0 V 0 h -8.75 v -31.2 q 0,-3.3 3.3,-3.3 v 0 h 4.15 q 1.5,0 2.2,0.7 0.7,0.7 1.5,2.05 v 0 l 8.1,14.15 q 0.7,1.2 1.35,2.65 0.65,1.45 1.25,3.05 v 0 h 0.45 q -0.15,-1.55 -0.25,-3.05 -0.1,-1.5 -0.1,-3 v 0 z m 22.15,-0.15 v 0 q 2.9,0 5.93,0 3.02,0 5.95,0.13 2.92,0.12 5.37,0.42 v 0 l -0.45,6.7 h -12.9 q -1.1,0 -1.7,0.57 -0.6,0.58 -0.6,1.58 v 0 16 q 0,1 0.6,1.57 0.6,0.58 1.7,0.58 v 0 h 12.9 l 0.45,6.7 q -2.45,0.25 -5.37,0.37 -2.93,0.13 -5.95,0.16 -3.03,0.02 -5.93,0.02 v 0 q -3.45,0 -5.6,-2.05 -2.15,-2.05 -2.15,-5.35 v 0 -20 q 0,-3.35 2.15,-5.38 2.15,-2.02 5.6,-2.02 z m -6.85,20.05 v -6.35 h 21.85 v 6.35 z"
                                 opacity="1"
                                 fill="#000000"
                                 class="undefined-text-0"
                                 data-fill-palette-color="primary"
                                 id="text-0" />
                            </svg>
                          </g>
                        </svg>
                      </g>
                      <g
                         transform="translate(163.31021,49.377552)"
                         id="g20">
                        <svg
                           viewBox="0 0 232.20979 8.6439405"
                           height="8.6439409"
                           width="232.20979"
                           version="1.1"
                           id="svg18">
                          <g
                             id="g16">
                            <svg
                               width="232.20979"
                               viewBox="1.45 -36.549999 996.57001 37.099998"
                               height="8.6439409"
                               data-palette-color="#89939e"
                               version="1.1"
                               id="svg14">
                              <path
                                 d="M 1.45,-25.25 V -36 h 30.3 v 10.75 h -2.8 l -1.6,-7.5 h -8 V -3.6 l 5.3,1.2 V 0 H 8.55 v -2.4 l 5.3,-1.2 V -32.75 H 5.8 l -1.55,7.5 z m 69.85,-8.35 -4.2,1.05 v 29.1 l 4.2,1.05 V 0 H 57.4 v -2.4 l 4.2,-1.05 V -16.9 H 45.15 v 13.45 l 4.2,1.05 V 0 h -13.9 v -2.4 l 4.2,-1.05 v -29.1 l -4.2,-1.05 V -36 h 13.9 v 2.4 l -4.2,1.05 v 12.5 H 61.6 v -12.5 L 57.4,-33.6 V -36 h 13.9 z m 26.25,8.5 v 13.2 H 94.5 l -0.9,-4.95 h -7.8 v 13.6 h 14.65 l 1.5,-7.9 h 3.4 V 0 H 75.6 v -2.4 l 4.7,-1.05 v -29.1 L 75.6,-33.6 V -36 h 28.65 v 10.6 h -3.1 L 99.6,-32.85 H 85.8 v 12.75 h 7.8 l 0.9,-5 z m 39.79,-8.5 -4.7,1.05 v 29.1 l 4.7,1.05 V 0 h -14.9 v -2.4 l 4.7,-1.05 v -29.1 l -4.7,-1.05 V -36 h 14.9 z m 4.3,31.2 4.2,-1.05 v -29.1 l -4.2,-1.05 V -36 h 10.2 l 18.05,27.25 v -23.8 l -4.2,-1.05 V -36 h 12.15 v 2.4 l -4.2,1.05 V 0 h -4.25 l -19.8,-29.55 v 26.1 l 4.2,1.05 V 0 h -12.15 z m 39.45,-22.85 V -36 h 30.3 v 10.75 h -2.8 l -1.6,-7.5 h -8 V -3.6 l 5.3,1.2 V 0 h -16.1 v -2.4 l 5.3,-1.2 v -29.15 h -8.05 l -1.55,7.5 z m 55.69,0.15 v 13.2 h -3.05 l -0.9,-4.95 h -7.8 v 13.6 h 14.65 l 1.5,-7.9 h 3.4 V 0 h -29.75 v -2.4 l 4.7,-1.05 v -29.1 l -4.7,-1.05 V -36 h 28.65 v 10.6 h -3.1 l -1.55,-7.45 h -13.8 v 12.75 h 7.8 l 0.9,-5 z m 38,6 v 0 q -0.9,0.7 -2.07,1.25 -1.18,0.55 -2.93,0.9 v 0 q 0.35,0.4 0.9,1.07 0.55,0.68 1.05,1.53 v 0 l 6.5,11 4.45,0.95 V 0 h -10.8 v -2.4 l -7,-13.6 h -5.65 v 12.55 l 4.75,1.05 V 0 h -14.45 v -2.4 l 4.2,-1.05 v -29.1 l -4.2,-1.05 V -36 h 17.7 q 2.4,0 4.2,0.45 1.8,0.45 3.25,1.45 v 0 q 1.8,1.2 2.85,3.3 1.05,2.1 1.05,4.2 v 0 q 0,2.1 -1.02,4.12 -1.03,2.03 -2.78,3.38 z m -15.55,-13.75 v 13.7 h 6.65 q 2.75,0 4.55,-1.55 v 0 q 1,-0.9 1.58,-2.4 0.57,-1.5 0.57,-3.2 v 0 q 0,-1.65 -0.6,-3.03 -0.6,-1.37 -1.6,-2.22 v 0 q -0.85,-0.7 -1.97,-1 -1.13,-0.3 -2.73,-0.3 v 0 z m 39.55,33.4 v 0 q -2.9,0 -5.18,-0.88 -2.27,-0.87 -3.87,-2.57 v 0 L 289.18,0 h -3.3 v -11.6 h 3.55 q 0.3,4.85 2.42,7 2.13,2.15 6.13,2.15 v 0 q 3.35,0 5.1,-1.33 1.75,-1.32 1.75,-3.92 v 0 q 0,-2.15 -1.08,-3.55 -1.07,-1.4 -3.1,-2.5 -2.02,-1.1 -4.82,-2.2 v 0 q -3.1,-1.3 -5.3,-2.6 -2.2,-1.3 -3.35,-3.15 -1.15,-1.85 -1.15,-4.75 v 0 q 0,-4.8 2.97,-7.45 2.98,-2.65 7.98,-2.65 v 0 q 4.95,0 8.05,2.8 v 0 l 0.4,-2.25 h 3.3 v 11.6 h -3.35 q 0,-4.75 -1.78,-6.98 -1.77,-2.22 -5.57,-2.22 v 0 q -6.45,0 -6.45,5.95 v 0 q 0,1.7 0.65,2.75 0.65,1.05 2.22,1.95 1.58,0.9 4.48,2.15 v 0 q 4.15,1.8 6.67,3.45 2.53,1.65 3.65,3.55 1.13,1.9 1.13,4.5 v 0 q 0,3.15 -1.5,5.35 -1.5,2.2 -4.1,3.35 -2.6,1.15 -6,1.15 z m 38.15,-25.65 v 13.2 h -3.05 l -0.9,-4.95 h -7.8 v 13.6 h 14.65 l 1.5,-7.9 h 3.4 V 0 h -29.75 v -2.4 l 4.7,-1.05 v -29.1 l -4.7,-1.05 V -36 h 28.65 v 10.6 h -3.1 l -1.55,-7.45 h -13.8 v 12.75 h 7.8 l 0.9,-5 z m 29.09,-8.45 v 0 q -2.25,0 -3.97,0.78 -1.73,0.77 -2.88,2.32 v 0 q -1.45,1.95 -2.32,5.05 -0.88,3.1 -0.88,6.8 v 0 q 0,3.55 0.75,6.65 0.75,3.1 2.1,5.2 v 0 q 1.25,1.95 3.15,2.87 1.9,0.93 4.65,0.93 v 0 q 8.8,0 10.25,-8.45 v 0 h 3.25 q -2.35,11.9 -14.2,11.9 v 0 q -6.9,0 -11,-4 v 0 q -2.45,-2.4 -3.75,-6.05 -1.3,-3.65 -1.3,-8.1 v 0 q 0,-5.05 1.65,-9.15 1.65,-4.1 4.65,-6.55 v 0 q 3.8,-3.15 10.05,-3.15 v 0 q 3.1,0 5.05,0.8 1.95,0.8 3.85,2.85 v 0 l 1,-3.15 h 3.25 v 11.3 h -3.55 q -0.7,-4.4 -3.2,-6.63 -2.5,-2.22 -6.6,-2.22 z m 17.25,8.3 V -36 h 30.3 v 10.75 h -2.8 l -1.6,-7.5 h -8 V -3.6 l 5.3,1.2 V 0 h -16.1 v -2.4 l 5.3,-1.2 v -29.15 h -8.05 l -1.55,7.5 z m 48.65,-8.35 -4.7,1.05 v 29.1 l 4.7,1.05 V 0 h -14.9 v -2.4 l 4.7,-1.05 v -29.1 l -4.7,-1.05 V -36 h 14.9 z m 37.34,15.2 v 0 q 0,4.3 -1.29,8.12 -1.3,3.83 -3.71,6.43 v 0 q -2.09,2.2 -5.02,3.27 -2.93,1.08 -6.82,1.08 v 0 q -3.91,0 -6.86,-1.05 -2.94,-1.05 -4.89,-3.15 v 0 q -2.25,-2.35 -3.53,-5.98 -1.27,-3.62 -1.27,-7.92 v 0 q 0,-4.35 1.32,-8.18 1.32,-3.82 3.68,-6.37 v 0 q 2.1,-2.25 4.92,-3.3 2.83,-1.05 6.77,-1.05 v 0 q 3.86,0 6.78,1.02 2.92,1.03 5.08,3.18 v 0 q 2.39,2.45 3.62,6.12 1.22,3.68 1.22,7.78 z m -27.14,-0.2 v 0 q 0,4.1 0.69,7.25 0.7,3.15 2,5.15 v 0 q 1.25,1.85 3.18,2.77 1.93,0.93 4.73,0.93 v 0 q 5.09,0 7.54,-3.3 v 0 q 1.36,-1.8 2.05,-4.8 0.7,-3 0.7,-7.1 v 0 q 0,-4.1 -0.72,-7.18 -0.73,-3.07 -2.03,-4.97 v 0 q -1.29,-1.9 -3.27,-2.8 -1.98,-0.9 -4.62,-0.9 v 0 q -2.56,0 -4.4,0.85 -1.85,0.85 -3.1,2.45 v 0 q -2.75,3.65 -2.75,11.65 z m 31.39,16.2 4.2,-1.05 v -29.1 l -4.2,-1.05 V -36 h 10.2 l 18.05,27.25 v -23.8 l -4.2,-1.05 V -36 h 12.15 v 2.4 l -4.2,1.05 V 0 h -4.25 l -19.8,-29.55 v 26.1 l 4.2,1.05 V 0 h -12.15 z m 86.3,-16 v 0 q 0,4.3 -1.3,8.12 -1.3,3.83 -3.7,6.43 v 0 q -2.1,2.2 -5.03,3.27 -2.92,1.08 -6.82,1.08 v 0 q -3.9,0 -6.85,-1.05 -2.95,-1.05 -4.9,-3.15 v 0 q -2.25,-2.35 -3.53,-5.98 -1.27,-3.62 -1.27,-7.92 v 0 q 0,-4.35 1.32,-8.18 1.33,-3.82 3.68,-6.37 v 0 q 2.1,-2.25 4.92,-3.3 2.83,-1.05 6.78,-1.05 v 0 q 3.85,0 6.77,1.02 2.93,1.03 5.08,3.18 v 0 q 2.4,2.45 3.62,6.12 1.23,3.68 1.23,7.78 z m -27.15,-0.2 v 0 q 0,4.1 0.7,7.25 0.7,3.15 2,5.15 v 0 q 1.25,1.85 3.17,2.77 1.93,0.93 4.73,0.93 v 0 q 5.1,0 7.55,-3.3 v 0 q 1.35,-1.8 2.05,-4.8 0.7,-3 0.7,-7.1 v 0 q 0,-4.1 -0.73,-7.18 -0.72,-3.07 -2.02,-4.97 v 0 q -1.3,-1.9 -3.28,-2.8 -1.97,-0.9 -4.62,-0.9 v 0 q -2.55,0 -4.4,0.85 -1.85,0.85 -3.1,2.45 v 0 q -2.75,3.65 -2.75,11.65 z m 53.05,-5.95 v 13.2 h -3.05 l -0.85,-4.95 h -7.85 v 12.7 l 5.85,0.95 V 0 h -16.06 v -2.4 l 4.71,-1.2 v -28.95 l -4.71,-1.05 V -36 h 28.66 v 10.7 h -3.2 l -1.6,-7.55 h -13.65 v 13.3 h 7.85 l 0.85,-5 z m 35.19,25.1 v 0 q -2.9,0 -5.18,-0.88 -2.27,-0.87 -3.87,-2.57 v 0 L 611.3,0 H 608 v -11.6 h 3.55 q 0.3,4.85 2.42,7 2.13,2.15 6.13,2.15 v 0 q 3.35,0 5.1,-1.33 1.75,-1.32 1.75,-3.92 v 0 q 0,-2.15 -1.08,-3.55 -1.07,-1.4 -3.1,-2.5 -2.02,-1.1 -4.82,-2.2 v 0 q -3.1,-1.3 -5.3,-2.6 -2.2,-1.3 -3.35,-3.15 -1.15,-1.85 -1.15,-4.75 v 0 q 0,-4.8 2.97,-7.45 2.98,-2.65 7.98,-2.65 v 0 q 4.95,0 8.05,2.8 v 0 l 0.4,-2.25 h 3.3 v 11.6 h -3.35 q 0,-4.75 -1.78,-6.98 -1.77,-2.22 -5.57,-2.22 v 0 q -6.45,0 -6.45,5.95 v 0 q 0,1.7 0.65,2.75 0.65,1.05 2.22,1.95 1.58,0.9 4.48,2.15 v 0 q 4.15,1.8 6.67,3.45 2.53,1.65 3.65,3.55 1.13,1.9 1.13,4.5 v 0 q 0,3.15 -1.5,5.35 -1.5,2.2 -4.1,3.35 -2.6,1.15 -6,1.15 z m 15.6,-25.8 V -36 h 30.3 v 10.75 H 664 l -1.6,-7.5 h -8 V -3.6 l 5.3,1.2 V 0 h -16.1 v -2.4 l 5.3,-1.2 v -29.15 h -8.05 l -1.55,7.5 z m 41.44,-7.3 8.2,15.3 8.35,-15.3 -4.05,-1.05 V -36 h 11.85 v 2.4 l -4.1,1.05 -10.05,18.45 v 10.65 l 4.7,1.05 V 0 h -14.9 v -2.4 l 4.7,-1.05 v -9.85 l -10.65,-19.25 -4.15,-1.05 V -36 h 14.3 v 2.4 z m 41.65,-1.05 -5.2,1.05 v 29.3 h 13.1 l 1.7,-8.65 h 3.25 V 0 h -28.25 v -2.4 l 4.7,-1.05 v -29.1 l -4.7,-1.05 V -36 h 15.4 z m 38.25,8.5 v 13.2 h -3.05 l -0.9,-4.95 h -7.8 v 13.6 h 14.65 l 1.5,-7.9 h 3.4 V 0 h -29.75 v -2.4 l 4.7,-1.05 v -29.1 l -4.7,-1.05 V -36 h 28.65 v 10.6 h -3.1 l -1.55,-7.45 h -13.8 v 12.75 h 7.8 l 0.9,-5 z m 58.34,5.85 v 2.3 l -3.8,0.95 q 0,3 -0.9,6 -0.9,3 -2.45,5.3 v 0 q 0.5,0.95 1.58,1.55 1.07,0.6 2.22,0.6 v 0 q 1.15,0 2.28,-0.6 1.12,-0.6 1.87,-1.55 v 0 l 1.45,2.15 q -2.15,3.05 -6.25,3.05 v 0 q -1.75,0 -3.35,-0.63 -1.6,-0.62 -3.05,-1.82 v 0 q -1.85,1.25 -4.05,1.85 -2.2,0.6 -5,0.6 v 0 q -6.05,0 -9.52,-2.65 -3.48,-2.65 -3.48,-7.25 v 0 q 0,-3.1 1.75,-5.35 1.75,-2.25 5.9,-4.55 v 0 q -2.75,-4.4 -2.75,-8.35 v 0 q 0,-2.6 1.13,-4.58 1.12,-1.97 3.15,-3.07 2.02,-1.1 4.72,-1.1 v 0 q 2.5,0 4.38,0.9 1.87,0.9 2.92,2.5 1.05,1.6 1.05,3.65 v 0 q 0,2.8 -2.07,5.45 -2.08,2.65 -6.28,4.85 v 0 l 9,11.65 q 1.05,-1.65 1.75,-3.85 0.7,-2.2 0.7,-4.75 v 0 l -3.85,-0.95 v -2.3 z m -18.85,16.6 v 0 q 1.9,0 3.4,-0.4 1.5,-0.4 2.6,-1.2 v 0 l -9.9,-12.65 q -1.95,1.05 -3.07,3.05 -1.13,2 -1.13,4.4 v 0 q 0,3.25 2.13,5.03 2.12,1.77 5.97,1.77 z m -3.95,-26.15 v 0 q 0,1.75 0.55,3.4 0.55,1.65 1.8,3.65 v 0 q 3.25,-1.9 4.78,-3.6 1.52,-1.7 1.52,-3.75 v 0 q 0,-1.95 -1.22,-3.15 -1.23,-1.2 -3.33,-1.2 v 0 q -1.9,0 -3,1.18 -1.1,1.17 -1.1,3.47 z m 53.9,29.35 v 0 q -2.9,0 -5.18,-0.88 -2.27,-0.87 -3.87,-2.57 v 0 L 837.68,0 h -3.3 v -11.6 h 3.55 q 0.3,4.85 2.42,7 2.13,2.15 6.13,2.15 v 0 q 3.35,0 5.1,-1.33 1.75,-1.32 1.75,-3.92 v 0 q 0,-2.15 -1.08,-3.55 -1.07,-1.4 -3.1,-2.5 -2.02,-1.1 -4.82,-2.2 v 0 q -3.1,-1.3 -5.3,-2.6 -2.2,-1.3 -3.35,-3.15 -1.15,-1.85 -1.15,-4.75 v 0 q 0,-4.8 2.97,-7.45 2.98,-2.65 7.98,-2.65 v 0 q 4.95,0 8.05,2.8 v 0 l 0.4,-2.25 h 3.3 v 11.6 h -3.35 q 0,-4.75 -1.78,-6.98 -1.77,-2.22 -5.57,-2.22 v 0 q -6.45,0 -6.45,5.95 v 0 q 0,1.7 0.65,2.75 0.65,1.05 2.22,1.95 1.58,0.9 4.48,2.15 v 0 q 4.15,1.8 6.67,3.45 2.53,1.65 3.65,3.55 1.13,1.9 1.13,4.5 v 0 q 0,3.15 -1.5,5.35 -1.5,2.2 -4.1,3.35 -2.6,1.15 -6,1.15 z m 26.15,-33.4 v 15.7 h 5.7 q 1.4,0 2.62,-0.42 1.23,-0.43 1.93,-1.13 v 0 q 1,-1.05 1.7,-2.65 0.7,-1.6 0.7,-3.55 v 0 q 0,-1.8 -0.68,-3.38 -0.67,-1.57 -1.72,-2.77 v 0 q -0.8,-0.85 -2.05,-1.33 -1.25,-0.47 -2.7,-0.47 v 0 z m 7.3,18.85 v 0 h -7.3 v 10.55 l 4.75,1.05 V 0 h -14.45 v -2.4 l 4.2,-1.05 v -29.1 l -4.2,-1.05 V -36 h 17.05 q 2.35,0 4.3,0.62 1.95,0.63 3.2,1.78 v 0 q 1.75,1.55 2.77,3.72 1.03,2.18 1.03,4.58 v 0 q 0,2.45 -1.08,4.85 -1.07,2.4 -2.82,3.95 v 0 q -1.3,1.25 -3.25,1.87 -1.95,0.63 -4.2,0.63 z m 48.39,-4.4 v 0 q 0,4.3 -1.3,8.12 -1.3,3.83 -3.7,6.43 v 0 q -2.1,2.2 -5.02,3.27 -2.93,1.08 -6.83,1.08 v 0 q -3.9,0 -6.85,-1.05 -2.95,-1.05 -4.9,-3.15 v 0 q -2.25,-2.35 -3.52,-5.98 -1.28,-3.62 -1.28,-7.92 v 0 q 0,-4.35 1.33,-8.18 1.32,-3.82 3.67,-6.37 v 0 q 2.1,-2.25 4.93,-3.3 2.82,-1.05 6.77,-1.05 v 0 q 3.85,0 6.78,1.02 2.92,1.03 5.07,3.18 v 0 q 2.4,2.45 3.63,6.12 1.22,3.68 1.22,7.78 z m -27.15,-0.2 v 0 q 0,4.1 0.7,7.25 0.7,3.15 2,5.15 v 0 q 1.25,1.85 3.18,2.77 1.92,0.93 4.72,0.93 v 0 q 5.1,0 7.55,-3.3 v 0 q 1.35,-1.8 2.05,-4.8 0.7,-3 0.7,-7.1 v 0 q 0,-4.1 -0.72,-7.18 -0.73,-3.07 -2.03,-4.97 v 0 q -1.3,-1.9 -3.27,-2.8 -1.98,-0.9 -4.63,-0.9 v 0 q -2.55,0 -4.4,0.85 -1.85,0.85 -3.1,2.45 v 0 q -2.75,3.65 -2.75,11.65 z m 56.6,-0.5 v 0 q -0.9,0.7 -2.07,1.25 -1.18,0.55 -2.93,0.9 v 0 q 0.35,0.4 0.9,1.07 0.55,0.68 1.05,1.53 v 0 l 6.5,11 4.45,0.95 V 0 h -10.8 v -2.4 l -7,-13.6 h -5.65 v 12.55 l 4.75,1.05 V 0 h -14.45 v -2.4 l 4.2,-1.05 v -29.1 l -4.2,-1.05 V -36 h 17.7 q 2.4,0 4.2,0.45 1.8,0.45 3.25,1.45 v 0 q 1.8,1.2 2.85,3.3 1.05,2.1 1.05,4.2 v 0 q 0,2.1 -1.02,4.12 -1.03,2.03 -2.78,3.38 z m -15.55,-13.75 v 13.7 h 6.65 q 2.75,0 4.55,-1.55 v 0 q 1,-0.9 1.58,-2.4 0.57,-1.5 0.57,-3.2 v 0 q 0,-1.65 -0.6,-3.03 -0.6,-1.37 -1.6,-2.22 v 0 q -0.85,-0.7 -1.97,-1 -1.13,-0.3 -2.73,-0.3 v 0 z m 24.7,7.6 V -36 h 30.3 v 10.75 h -2.8 l -1.6,-7.5 h -8 V -3.6 l 5.3,1.2 V 0 h -16.1 v -2.4 l 5.3,-1.2 v -29.15 h -8.05 l -1.55,7.5 z"
                                 opacity="1"
                                 fill="#89939e"
                                 class="undefined-text-1"
                                 data-fill-palette-color="secondary"
                                 id="text-1" />
                            </svg>
                          </g>
                        </svg>
                      </g>
                    </svg>
                  </g>
                </svg>
              </g>
              <g
                 transform="translate(404.95053)"
                 id="g40">
                <svg
                   viewBox="0 0 80.185702 80.185702"
                   height="80.185699"
                   width="80.185699"
                   version="1.1"
                   id="svg38">
                  <g
                     data-palette-color="#000000"
                     id="g36">
                    <rect
                       width="21.917425"
                       height="80.185699"
                       fill="#000000"
                       stroke="transparent"
                       data-fill-palette-color="accent"
                       x="0"
                       fill-opacity="1"
                       id="rect30"
                       y="0" />
                    <rect
                       width="21.917425"
                       height="80.185699"
                       fill="#000000"
                       stroke="transparent"
                       data-fill-palette-color="accent"
                       x="26.728567"
                       fill-opacity="0.75"
                       id="rect32"
                       y="0" />
                    <rect
                       width="21.917425"
                       height="80.185699"
                       fill="#000000"
                       stroke="transparent"
                       data-fill-palette-color="accent"
                       x="53.457134"
                       fill-opacity="0.5"
                       id="rect34"
                       y="0" />
                  </g>
                </svg>
              </g>
            </svg>
          </g>
          <defs
             id="defs46" />
        </svg>
        <rect
           width="395.51999"
           height="65.373489"
           fill="none"
           stroke="none"
           visibility="hidden"
           id="rect50"
           x="0"
           y="0" />
      </g>
    </svg>
  </g>
</svg>
